HIERARCHY
ROOT pelvis
{
  OFFSET 0 100 0
  CHANNELS 6 Xposition Yposition Zposition Zrotation Xrotation Yrotation
  JOINT pelvis_right_femur
  {
    OFFSET -10.78128 -3.44521 -0.5502486
    CHANNELS 3 Zrotation Xrotation Yrotation
    JOINT right_femur_tibia
    {
      OFFSET -0.8047443 -44.0398 -0.1307829
      CHANNELS 3 Zrotation Xrotation Yrotation
      JOINT right_tibia_foot
      {
        OFFSET 3.006224 -47.83518 -5
        CHANNELS 3 Zrotation Xrotation Yrotation
        End Site
        {
          OFFSET 0 -5 15
        }
      }
    }
  }
  JOINT pelvis_left_femur
  {
    OFFSET 10.78128 -3.44521 -0.5502486
    CHANNELS 3 Zrotation Xrotation Yrotation
    JOINT left_femur_tibia
    {
      OFFSET 0.8047443 -44.0398 -0.1307829
      CHANNELS 3 Zrotation Xrotation Yrotation
      JOINT left_tibia_foot
      {
        OFFSET -4.370144 -48.10324 -4.275266
        CHANNELS 3 Zrotation Xrotation Yrotation
        End Site
        {
          OFFSET 0 -5 15
        }
      }
    }
  }
  JOINT pelvis_spine1
  {
    OFFSET 0 6.468898 -3.129235
    CHANNELS 3 Zrotation Xrotation Yrotation
    JOINT spine1
    {
      OFFSET 0 23.15396 4.99043
      CHANNELS 3 Zrotation Xrotation Yrotation
      JOINT spine2
      {
        OFFSET 0 20.79997 -5.064912
        CHANNELS 3 Zrotation Xrotation Yrotation
        JOINT neck
        {
          OFFSET 0 14.38658 9.616178
          CHANNELS 3 Zrotation Xrotation Yrotation
          End Site
          {
            OFFSET 0 20 0
          }
        }
      }
      JOINT right_manubrium
      {
        OFFSET -5.722621 16.35077 3.967754
        CHANNELS 3 Zrotation Xrotation Yrotation
        JOINT right_clavicle
        {
          OFFSET -13.16364 1.694482 -4.693211
          CHANNELS 3 Zrotation Xrotation Yrotation
          JOINT right_humerus
          {
            OFFSET -28.5034 -0.3100689 -2.792744
            CHANNELS 3 Zrotation Xrotation Yrotation
            JOINT right_radius
            {
              OFFSET -25.15693 0.02248979 -1.271978
              CHANNELS 3 Zrotation Xrotation Yrotation
              End Site
              {
                OFFSET -15 0 0
              }
            }
          }
        }
      }
      JOINT left_manubrium
      {
        OFFSET 5.722621 16.35077 3.967754
        CHANNELS 3 Zrotation Xrotation Yrotation
        JOINT left_clavicle
        {
          OFFSET 13.16364 1.694482 -4.693211
          CHANNELS 3 Zrotation Xrotation Yrotation
          JOINT left_humerus
          {
            OFFSET 29.39168 -1.063119 -2.237045
            CHANNELS 3 Zrotation Xrotation Yrotation
            JOINT left_radius
            {
              OFFSET 24.59957 -0.9528479 0.9047498
              CHANNELS 3 Zrotation Xrotation Yrotation
              End Site
              {
                OFFSET 15 -0 -0
              }
            }
          }
        }
      }
    }
  }
}
MOTION
Frames: 19
Frame Time: 0.0416666666667
841.4797 99.2349 2819.519 4.290762 -3.241478 41.41186 0.7160352 -24.99777 -0.3746701 -0 20.51486 -0 -0.9244565 -1.150379 -7.078602 -5.140572 14.90945 -8.552948 -0 12.4875 -0 -4.860918 -20.33161 12.59278 -2.507198 0.2868105 2.263649 1.027657 9.233846 -7.906893 1.533117 22.41772 6.626855 2.230722 -17.22069 7.877368 1.821226 -14.92188 10.26571 90.73505 26.36912 -22.07172 -0 0 9.317893 -22.25944 13.67531 10.64103 6.583939 -22.56041 -5.556727 -81.5502 24.49359 5.64118 0 0 -27.98588 0.3646108 9.894332 12.66903
845.3281 98.02758 2824.165 3.623398 -2.972043 41.93807 1.427933 -27.27037 -0.4556185 -0 14.86982 -0 -1.664616 -2.087703 -7.11058 -4.753546 16.72206 -8.446138 -0 14.79927 -0 -5.627067 -20.25298 11.89528 -2.136543 0.3209025 1.950124 1.341994 8.820628 -8.098001 1.674379 22.45444 6.441566 2.195252 -17.35867 7.89088 1.716827 -14.17258 10.10907 91.16098 26.58019 -22.95669 -0 0 8.122442 -21.15635 13.54856 9.911642 6.916836 -22.85905 -5.270015 -81.08895 24.41426 4.189694 0 0 -28.96223 1.016152 10.23204 11.7982
849.2293 96.93972 2829.019 2.970364 -2.840254 42.29629 2.363208 -27.90973 0.02094456 -0 11.64897 -0 -2.507082 -2.855154 -7.118061 -4.315965 17.55879 -8.567819 -0 19.20464 -0 -6.631159 -19.30215 11.30677 -1.708286 0.349941 1.76884 1.60156 8.449337 -8.117176 1.842842 22.51878 6.230729 2.180172 -17.6105 7.911504 1.868838 -13.4824 10.01077 91.32026 27.13511 -23.41786 -0 0 7.202867 -19.81532 13.40475 9.171969 6.902821 -22.69397 -4.879382 -81.23364 24.82904 3.833115 0 0 -28.72426 1.228989 10.53757 11.5812
853.1961 96.2083 2834.059 2.464892 -2.904914 42.47873 3.418138 -26.72806 0.9326572 -0 10.87972 -0 -3.42194 -3.43324 -7.090035 -3.853131 17.25581 -8.831943 -0 25.60815 -0 -7.734974 -17.50156 10.96216 -1.254435 0.388283 1.747075 1.772648 8.175812 -7.937601 2.039355 22.64342 5.982559 2.182143 -17.88805 7.917305 2.217958 -12.89742 9.982435 91.20809 27.89257 -23.37968 -0 0 6.581143 -18.4024 13.23372 8.485268 6.560217 -22.11579 -4.437305 -81.95018 25.5774 4.504583 0 0 -27.30108 1.092117 10.82359 11.86913
857.2232 95.99707 2839.241 2.307888 -3.242547 42.47473 4.390786 -23.7151 2.024074 -0 12.13804 -0 -4.335431 -3.865178 -7.019957 -3.42009 15.69017 -9.060647 -0 33.61338 -0 -8.710537 -15.02583 11.02498 -0.8314516 0.4586269 1.918526 1.814139 8.088854 -7.551732 2.257821 22.86982 5.681372 2.190727 -18.03853 7.868577 2.635545 -12.48909 10.04684 90.85485 28.57091 -22.80671 -0 0 6.256717 -17.20487 13.04199 7.93763 5.977932 -21.28847 -4.038839 -83.10472 26.30933 5.931429 0 0 -24.9738 0.8168185 11.09512 12.32747
861.2625 96.3525 2844.481 2.681943 -3.898435 42.27485 5.084586 -19.10513 3.038898 -0 14.55136 -0 -5.104573 -4.341251 -6.9147 -3.06422 12.8019 -9.052831 -0 42.39396 -0 -9.31878 -12.21809 11.62472 -0.5132461 0.5847877 2.321475 1.696838 8.266946 -6.985675 2.480112 23.21902 5.321362 2.188373 -17.90371 7.725623 2.968895 -12.35381 10.22891 90.30171 28.86673 -21.72712 -0 0 6.261177 -16.53224 12.86508 7.610613 5.301218 -20.43655 -3.78533 -84.45344 26.65314 7.696782 0 0 -22.25541 0.6245016 11.33498 12.59678
865.2195 97.18597 2849.656 3.599581 -4.810573 41.87979 5.410752 -13.33024 3.868932 -0 17.01515 -0 -5.516562 -5.237498 -6.784337 -2.770213 8.583674 -8.695412 -0 50.64702 -0 -9.437398 -9.518296 12.78734 -0.3641168 0.7760687 2.990119 1.427483 8.699678 -6.296803 2.676901 23.6517 4.924391 2.154712 -17.42615 7.483551 3.12124 -12.59444 10.52902 89.53545 28.66069 -20.20196 -0 0 6.735018 -16.54962 12.75851 7.552224 4.68001 -19.7163 -3.705125 -85.76318 26.46503 9.470831 0 0 -19.70053 0.5724792 11.47526 12.55209
868.998 98.28048 2854.641 4.809423 -5.766444 41.30023 5.388725 -7.020313 4.546814 -0 18.49424 -0 -5.345785 -6.946371 -6.609709 -2.454945 3.190389 -8.014119 -0 56.67752 -0 -9.123617 -7.375769 14.38037 -0.4076465 1.010078 3.918393 1.059481 9.244502 -5.56785 2.813126 24.05259 4.551026 2.074599 -16.71713 7.195369 3.088834 -13.27152 10.89486 88.47692 28.10707 -18.30629 -0 0 7.893971 -17.19684 12.76875 7.774529 4.229573 -19.14333 -3.712195 -86.92692 25.90843 11.16321 0 0 -17.721 0.5084663 11.40045 12.39144
872.5796 99.31272 2859.369 5.887805 -6.453866 40.55286 5.0791 -1.124795 5.057678 -0 18.20497 -0 -4.452327 -9.501695 -6.306783 -2.037733 -2.815817 -7.098253 -0 58.6336 -0 -8.517715 -6.222082 16.09407 -0.6174687 1.227967 5.006887 0.6709844 9.684809 -4.905032 2.85637 24.26887 4.290616 1.945461 -15.99981 6.953932 2.892306 -14.34551 11.21875 87.10059 27.45371 -16.18365 -0 0 9.830924 -18.31839 12.90095 8.287724 4.051396 -18.68283 -3.680787 -87.87113 25.22118 12.73605 0 0 -16.59676 0.2894345 11.01263 12.35165
876.0743 99.93331 2863.885 6.456153 -6.5966 39.67607 4.56262 3.419061 5.24372 -0 15.95985 -0 -2.891977 -12.35529 -5.722573 -1.499972 -8.629015 -6.024837 -0 55.30084 -0 -7.726789 -6.295162 17.54274 -0.9242619 1.352285 6.086017 0.3198114 9.862132 -4.398542 2.783515 24.18288 4.228936 1.791383 -15.50991 6.835293 2.526644 -15.69685 11.38941 85.51372 26.8579 -14.02757 -0 0 12.39677 -19.82006 13.09659 9.13199 4.208848 -18.32962 -3.546247 -88.5227 24.49955 14.14131 0 0 -16.40445 -0.04097558 10.30084 12.46712
879.6745 99.93964 2868.297 6.333651 -6.101395 38.74648 3.951256 6.637366 5.025139 -0 12.81002 -0 -1.056244 -14.62024 -4.713192 -0.8636279 -13.9043 -4.940426 -0 47.39885 -0 -6.90157 -7.239222 18.48713 -1.222369 1.323168 7.026307 0.02217332 9.76837 -4.042847 2.58559 23.77835 4.406327 1.684516 -15.47881 6.84015 2.072335 -17.22213 11.38372 83.82087 26.50165 -11.89278 -0 0 15.32299 -21.55956 13.22421 10.34 4.57828 -17.99566 -3.292836 -89.1085 23.85875 15.76788 0 0 -16.62446 -0.4533603 9.380901 12.83189
883.5397 99.3961 2872.698 5.609559 -5.16377 37.86459 3.354452 9.613295 4.576502 -0 10.76682 -0 0.3017209 -15.61216 -3.318088 -0.1788919 -18.77837 -4.146307 -0 37.653 -0 -6.275421 -8.143903 18.98008 -1.409425 1.137946 7.749571 -0.2322072 9.503248 -3.715649 2.306318 23.20144 4.759372 1.714696 -16.01936 6.898306 1.725233 -18.80136 11.27698 82.06623 26.58842 -9.635245 -0 0 18.25493 -23.17299 13.0975 11.81629 4.858955 -17.46965 -2.916635 -90.15494 23.51589 18.29641 0 0 -16.13473 -0.9972953 8.551087 13.61679
887.7221 98.53432 2877.144 4.664967 -4.22376 37.11593 2.824493 13.02166 4.136027 -0 11.16084 -0 0.5919546 -15.30413 -1.8604 0.3997094 -22.93741 -3.927878 -0 28.91681 -0 -5.939132 -8.363214 19.28374 -1.468116 0.8677794 8.160596 -0.46518 9.161743 -3.292056 2.075284 22.72788 5.108446 1.878792 -16.87219 6.960393 1.571984 -20.15438 11.12858 80.44473 26.97676 -7.234858 -0 0 20.67469 -24.26416 12.61773 13.25872 4.883705 -16.65769 -2.471784 -91.78695 23.43458 21.53634 0 0 -14.20728 -1.48596 8.188403 14.50958
892.1849 97.58223 2881.68 3.953822 -3.641704 36.54258 2.332884 16.16732 3.834093 -0 13.87798 -0 0.137999 -14.15331 -0.7616889 0.6208012 -25.56231 -4.269448 -0 22.70042 -0 -5.777371 -8.086129 19.56591 -1.484053 0.6190155 8.241715 -0.6984895 8.820286 -2.804127 2.000472 22.52692 5.32072 2.057598 -17.55496 7.058353 1.528722 -20.9576 10.94233 79.30673 27.26047 -5.104449 -0 0 22.16987 -24.8052 11.96409 14.32727 4.749429 -15.73564 -2.085346 -93.36442 23.34992 24.27429 0 0 -11.43539 -1.642521 8.315397 14.95561
896.8621 96.74221 2886.332 3.692721 -3.466035 36.17137 1.816933 17.97075 3.714774 -0 18.49926 -0 -0.2267415 -12.37865 -0.2613787 0.311035 -26.22769 -4.921387 -0 19.38978 -0 -5.663629 -7.829809 19.7377 -1.550342 0.4535069 8.107706 -0.9432617 8.588088 -2.408632 2.054571 22.53547 5.440328 2.160043 -17.84465 7.238711 1.546408 -21.12247 10.7478 78.86865 27.2771 -3.798952 -0 0 22.69831 -25.11029 11.44926 14.9031 4.577272 -14.96235 -1.886423 -94.20616 23.18633 25.65197 0 0 -9.019923 -1.49307 8.546439 14.91111
901.6896 96.21426 2891.081 3.871219 -3.609669 36.05347 1.242862 17.94857 3.730421 -0 25.0065 -0 -0.1412822 -9.847258 -0.3953631 -0.5359033 -24.93182 -5.711287 -0 18.5894 -0 -5.499522 -7.854 19.63857 -1.699303 0.3502319 7.837677 -1.194699 8.581867 -2.235653 2.14491 22.62121 5.563402 2.185902 -17.81149 7.489405 1.642412 -20.79811 10.60019 79.18305 27.07972 -3.597757 -0 0 22.42608 -25.431 11.25086 15.07433 4.379513 -14.51135 -1.971619 -94.16162 23.00112 25.72097 0 0 -7.576572 -1.222606 8.620735 14.6659
906.5955 96.17699 2895.852 4.384556 -3.985253 36.25237 0.6219942 16.21694 3.829761 -0 33.33375 -0 0.2632372 -6.581261 -1.106482 -1.777992 -21.88805 -6.597427 -0 19.45035 -0 -5.247219 -8.168027 19.20226 -1.921829 0.2581033 7.436072 -1.41851 8.856817 -2.345444 2.192273 22.69337 5.737592 2.174077 -17.61586 7.751686 1.860271 -20.22174 10.54553 80.1684 26.79061 -4.461609 -0 0 21.59812 -25.77332 11.40988 14.98242 4.100615 -14.43532 -2.372409 -93.49284 22.92437 25.02885 0 0 -7.085837 -1.079521 8.536746 14.60746
911.4758 96.73777 2900.51 5.083771 -4.472885 36.80392 0.01288778 13.101 3.996316 -0 42.71841 -0 0.7361019 -2.970007 -2.270336 -3.187858 -17.49942 -7.567291 -0 21.06525 -0 -4.95384 -8.748015 18.46535 -2.19999 0.1563858 6.900614 -1.544517 9.379816 -2.761862 2.137231 22.7048 5.981826 2.173692 -17.42659 7.954967 2.252685 -19.60491 10.61619 81.6196 26.6074 -6.210361 -0 0 20.45029 -25.98867 11.88892 14.7344 3.701155 -14.72395 -3.039522 -92.55986 23.19304 24.12756 0 0 -7.428251 -1.347758 8.371006 15.14275
916.1949 97.84942 2904.895 5.782826 -4.89702 37.67802 -0.4800437 8.860462 4.172385 -0 51.28486 -0 1.077644 0.2770485 -3.668765 -4.503774 -12.29605 -8.564567 -0 22.45496 -0 -4.692779 -9.676536 17.55112 -2.513243 0.06639527 6.251717 -1.489571 10.01279 -3.472685 1.956123 22.64772 6.292017 2.221839 -17.3651 8.049971 2.806595 -19.06675 10.80309 83.27345 26.71373 -8.615103 -0 0 19.14284 -25.91039 12.56741 14.37796 3.25289 -15.35787 -3.847457 -91.57534 24.001 23.2091 0 0 -8.657481 -2.143214 8.19322 16.4089
